<?xml version="1.0" encoding="UTF-8" standalone="no"?>
<!DOCTYPE svg PUBLIC "-//W3C//DTD SVG 1.1//EN"
 "http://www.w3.org/Graphics/SVG/1.1/DTD/svg11.dtd">
<!-- Generated by graphviz version 2.42.4 (0)
 -->
<!-- Title: fluxo_dados Pages: 1 -->
<svg width="1266pt" height="465pt"
 viewBox="0.00 0.00 1265.50 465.25" xmlns="http://www.w3.org/2000/svg" xmlns:xlink="http://www.w3.org/1999/xlink">
<g id="graph0" class="graph" transform="scale(1 1) rotate(0) translate(4 461.25)">
<title>fluxo_dados</title>
<polygon fill="white" stroke="transparent" points="-4,4 -4,-461.25 1261.5,-461.25 1261.5,4 -4,4"/>
<g id="clust1" class="cluster">
<title>cluster_llm</title>
<polygon fill="none" stroke="#2196f3" stroke-dasharray="5,2" points="8,-82 8,-274.25 262,-274.25 262,-82 8,-82"/>
<text text-anchor="middle" x="135" y="-259.05" font-family="Helvetica,sans-Serif" font-size="14.00" fill="#2196f3">LLM (modelo de linguagem)</text>
</g>
<g id="clust2" class="cluster">
<title>cluster_python</title>
<polygon fill="none" stroke="#4caf50" stroke-dasharray="5,2" points="838,-164 838,-435.25 1065,-435.25 1065,-164 838,-164"/>
<text text-anchor="middle" x="951.5" y="-420.05" font-family="Helvetica,sans-Serif" font-size="14.00" fill="#4caf50">Python local (sandbox seguro)</text>
</g>
<g id="clust3" class="cluster">
<title>cluster_orquestrador</title>
<polygon fill="none" stroke="#ff9800" stroke-dasharray="5,2" points="282,-176.25 282,-449.25 784,-449.25 784,-176.25 282,-176.25"/>
<text text-anchor="middle" x="533" y="-434.05" font-family="Helvetica,sans-Serif" font-size="14.00" fill="#ff9800">Classificador (graph_as_code.py)</text>
</g>
<!-- llm_pensa -->
<g id="node1" class="node">
<title>llm_pensa</title>
<path fill="none" stroke="black" d="M197,-220.25C197,-220.25 117,-220.25 117,-220.25 111,-220.25 105,-214.25 105,-208.25 105,-208.25 105,-196.25 105,-196.25 105,-190.25 111,-184.25 117,-184.25 117,-184.25 197,-184.25 197,-184.25 203,-184.25 209,-190.25 209,-196.25 209,-196.25 209,-208.25 209,-208.25 209,-214.25 203,-220.25 197,-220.25"/>
<text text-anchor="middle" x="157" y="-205.45" font-family="Helvetica,sans-Serif" font-size="11.00">Raciocina sobre</text>
<text text-anchor="middle" x="157" y="-193.45" font-family="Helvetica,sans-Serif" font-size="11.00">o estado atual</text>
</g>
<!-- llm_codigo -->
<g id="node2" class="node">
<title>llm_codigo</title>
<path fill="none" stroke="black" d="M110,-126C110,-126 28,-126 28,-126 22,-126 16,-120 16,-114 16,-114 16,-102 16,-102 16,-96 22,-90 28,-90 28,-90 110,-90 110,-90 116,-90 122,-96 122,-102 122,-102 122,-114 122,-114 122,-120 116,-126 110,-126"/>
<text text-anchor="middle" x="69" y="-111.2" font-family="Helvetica,sans-Serif" font-size="11.00">Gera expressao</text>
<text text-anchor="middle" x="69" y="-99.2" font-family="Helvetica,sans-Serif" font-size="11.00">pandas (1 linha)</text>
</g>
<!-- llm_pensa&#45;&gt;llm_codigo -->
<g id="edge2" class="edge">
<title>llm_pensa&#45;&gt;llm_codigo</title>
<path fill="none" stroke="black" d="M123.12,-184.05C110.44,-176.28 96.76,-166.1 87,-154 82.7,-148.67 79.32,-142.18 76.7,-135.81"/>
<polygon fill="black" stroke="black" points="79.88,-134.3 73.2,-126.08 73.29,-136.67 79.88,-134.3"/>
<text text-anchor="middle" x="130.5" y="-146.8" font-family="Helvetica,sans-Serif" font-size="9.00">raciocinio + codigo</text>
</g>
<!-- llm_resposta -->
<g id="node3" class="node">
<title>llm_resposta</title>
<path fill="none" stroke="black" stroke-width="2" d="M241.5,-126C241.5,-126 152.5,-126 152.5,-126 146.5,-126 140.5,-120 140.5,-114 140.5,-114 140.5,-102 140.5,-102 140.5,-96 146.5,-90 152.5,-90 152.5,-90 241.5,-90 241.5,-90 247.5,-90 253.5,-96 253.5,-102 253.5,-102 253.5,-114 253.5,-114 253.5,-120 247.5,-126 241.5,-126"/>
<text text-anchor="middle" x="197" y="-111.2" font-family="Helvetica,sans-Serif" font-size="11.00">Emite</text>
<text text-anchor="middle" x="197" y="-99.2" font-family="Helvetica,sans-Serif" font-size="11.00">Answer [class_id]</text>
</g>
<!-- llm_pensa&#45;&gt;llm_resposta -->
<g id="edge3" class="edge">
<title>llm_pensa&#45;&gt;llm_resposta</title>
<path fill="none" stroke="black" d="M164.52,-183.9C170.39,-170.37 178.64,-151.34 185.36,-135.85"/>
<polygon fill="black" stroke="black" points="188.74,-136.84 189.51,-126.27 182.32,-134.06 188.74,-136.84"/>
<text text-anchor="middle" x="230.5" y="-146.8" font-family="Helvetica,sans-Serif" font-size="9.00">confiante o suficiente</text>
</g>
<!-- roteador -->
<g id="node7" class="node">
<title>roteador</title>
<polygon fill="none" stroke="black" points="627,-395.25 478,-363.25 627,-331.25 776,-363.25 627,-395.25"/>
<text text-anchor="middle" x="627" y="-366.45" font-family="Helvetica,sans-Serif" font-size="11.00">Analisa a resposta:</text>
<text text-anchor="middle" x="627" y="-354.45" font-family="Helvetica,sans-Serif" font-size="11.00">codigo? resposta? erro?</text>
</g>
<!-- llm_codigo&#45;&gt;roteador -->
<g id="edge4" class="edge">
<title>llm_codigo&#45;&gt;roteador</title>
<path fill="none" stroke="black" d="M122.18,-123.77C125.5,-124.56 128.79,-125.31 132,-126 156.65,-131.29 227.58,-124.88 244,-144 245.18,-145.37 244.35,-272.56 245,-274.25 251.01,-289.81 255.1,-294.75 270,-302.25 309.67,-322.2 425.28,-312.52 469,-320.25 498.37,-325.44 530.26,-333.45 557.64,-341.09"/>
<polygon fill="black" stroke="black" points="556.94,-344.53 567.51,-343.88 558.84,-337.79 556.94,-344.53"/>
<text text-anchor="middle" x="303" y="-200.05" font-family="Helvetica,sans-Serif" font-size="9.00">resposta (texto + codigo)</text>
</g>
<!-- llm_resposta&#45;&gt;roteador -->
<g id="edge5" class="edge">
<title>llm_resposta&#45;&gt;roteador</title>
<path fill="none" stroke="black" d="M253.7,-114.93C289.71,-121.46 335.02,-135.18 365,-164 402.69,-200.23 369.46,-236.86 406,-274.25 441.63,-310.71 494.29,-332.47 539.26,-345.23"/>
<polygon fill="black" stroke="black" points="538.46,-348.64 549.03,-347.89 540.3,-341.88 538.46,-348.64"/>
<text text-anchor="middle" x="436.5" y="-200.05" font-family="Helvetica,sans-Serif" font-size="9.00">resposta final</text>
</g>
<!-- fim -->
<g id="node10" class="node">
<title>fim</title>
<path fill="#e8f5e9" stroke="black" d="M263.5,-44C263.5,-44 130.5,-44 130.5,-44 124.5,-44 118.5,-38 118.5,-32 118.5,-32 118.5,-12 118.5,-12 118.5,-6 124.5,0 130.5,0 130.5,0 263.5,0 263.5,0 269.5,0 275.5,-6 275.5,-12 275.5,-12 275.5,-32 275.5,-32 275.5,-38 269.5,-44 263.5,-44"/>
<text text-anchor="middle" x="197" y="-31.2" font-family="Helvetica,sans-Serif" font-size="11.00">Retorna:</text>
<text text-anchor="middle" x="197" y="-19.2" font-family="Helvetica,sans-Serif" font-size="11.00">{no, predicao,</text>
<text text-anchor="middle" x="197" y="-7.2" font-family="Helvetica,sans-Serif" font-size="11.00">passos, tokens, latencia}</text>
</g>
<!-- llm_resposta&#45;&gt;fim -->
<g id="edge13" class="edge">
<title>llm_resposta&#45;&gt;fim</title>
<path fill="none" stroke="black" d="M197,-89.6C197,-79.41 197,-66.25 197,-54.32"/>
<polygon fill="black" stroke="black" points="200.5,-54.26 197,-44.26 193.5,-54.26 200.5,-54.26"/>
<text text-anchor="middle" x="217" y="-64.8" font-family="Helvetica,sans-Serif" font-size="9.00">predicao</text>
</g>
<!-- executor -->
<g id="node4" class="node">
<title>executor</title>
<path fill="none" stroke="black" d="M1024,-381.25C1024,-381.25 878,-381.25 878,-381.25 872,-381.25 866,-375.25 866,-369.25 866,-369.25 866,-357.25 866,-357.25 866,-351.25 872,-345.25 878,-345.25 878,-345.25 1024,-345.25 1024,-345.25 1030,-345.25 1036,-351.25 1036,-357.25 1036,-357.25 1036,-369.25 1036,-369.25 1036,-375.25 1030,-381.25 1024,-381.25"/>
<text text-anchor="middle" x="951" y="-366.45" font-family="Helvetica,sans-Serif" font-size="11.00">ExecutorSeguro</text>
<text text-anchor="middle" x="951" y="-354.45" font-family="Helvetica,sans-Serif" font-size="11.00">(valida AST + tempo limite)</text>
</g>
<!-- df -->
<g id="node5" class="node">
<title>df</title>
<path fill="none" stroke="black" d="M1005.5,-227.21C1005.5,-230.27 981.07,-232.75 951,-232.75 920.93,-232.75 896.5,-230.27 896.5,-227.21 896.5,-227.21 896.5,-177.29 896.5,-177.29 896.5,-174.23 920.93,-171.75 951,-171.75 981.07,-171.75 1005.5,-174.23 1005.5,-177.29 1005.5,-177.29 1005.5,-227.21 1005.5,-227.21"/>
<path fill="none" stroke="black" d="M1005.5,-227.21C1005.5,-224.15 981.07,-221.66 951,-221.66 920.93,-221.66 896.5,-224.15 896.5,-227.21"/>
<text text-anchor="middle" x="951" y="-211.45" font-family="Helvetica,sans-Serif" font-size="11.00">DataFrame</text>
<text text-anchor="middle" x="951" y="-199.45" font-family="Helvetica,sans-Serif" font-size="11.00">(id, features,</text>
<text text-anchor="middle" x="951" y="-187.45" font-family="Helvetica,sans-Serif" font-size="11.00">neighbors, label)</text>
</g>
<!-- executor&#45;&gt;df -->
<g id="edge8" class="edge">
<title>executor&#45;&gt;df</title>
<path fill="none" stroke="black" d="M951,-335.16C951,-309.74 951,-271.44 951,-242.64"/>
<polygon fill="black" stroke="black" points="947.5,-335.23 951,-345.23 954.5,-335.23 947.5,-335.23"/>
<polygon fill="black" stroke="black" points="954.5,-242.51 951,-232.51 947.5,-242.51 954.5,-242.51"/>
<text text-anchor="middle" x="992" y="-290.05" font-family="Helvetica,sans-Serif" font-size="9.00">avalia a expressao</text>
</g>
<!-- anexa -->
<g id="node8" class="node">
<title>anexa</title>
<path fill="none" stroke="black" d="M763.5,-220.25C763.5,-220.25 670.5,-220.25 670.5,-220.25 664.5,-220.25 658.5,-214.25 658.5,-208.25 658.5,-208.25 658.5,-196.25 658.5,-196.25 658.5,-190.25 664.5,-184.25 670.5,-184.25 670.5,-184.25 763.5,-184.25 763.5,-184.25 769.5,-184.25 775.5,-190.25 775.5,-196.25 775.5,-196.25 775.5,-208.25 775.5,-208.25 775.5,-214.25 769.5,-220.25 763.5,-220.25"/>
<text text-anchor="middle" x="717" y="-205.45" font-family="Helvetica,sans-Serif" font-size="11.00">Anexa o resultado</text>
<text text-anchor="middle" x="717" y="-193.45" font-family="Helvetica,sans-Serif" font-size="11.00">ao dialogo</text>
</g>
<!-- executor&#45;&gt;anexa -->
<g id="edge9" class="edge">
<title>executor&#45;&gt;anexa</title>
<path fill="none" stroke="black" d="M925.96,-345.23C883.67,-316.5 798.08,-258.35 750.62,-226.09"/>
<polygon fill="black" stroke="black" points="752.45,-223.11 742.22,-220.38 748.52,-228.9 752.45,-223.11"/>
<text text-anchor="middle" x="897.5" y="-290.05" font-family="Helvetica,sans-Serif" font-size="9.00">(sucesso, texto)</text>
</g>
<!-- init -->
<g id="node6" class="node">
<title>init</title>
<path fill="none" stroke="black" d="M448,-381.25C448,-381.25 302,-381.25 302,-381.25 296,-381.25 290,-375.25 290,-369.25 290,-369.25 290,-357.25 290,-357.25 290,-351.25 296,-345.25 302,-345.25 302,-345.25 448,-345.25 448,-345.25 454,-345.25 460,-351.25 460,-357.25 460,-357.25 460,-369.25 460,-369.25 460,-375.25 454,-381.25 448,-381.25"/>
<text text-anchor="middle" x="375" y="-366.45" font-family="Helvetica,sans-Serif" font-size="11.00">Monta o prompt de sistema</text>
<text text-anchor="middle" x="375" y="-354.45" font-family="Helvetica,sans-Serif" font-size="11.00">+ &#39;classifique o no X&#39;</text>
</g>
<!-- init&#45;&gt;llm_pensa -->
<g id="edge1" class="edge">
<title>init&#45;&gt;llm_pensa</title>
<path fill="none" stroke="black" d="M289.77,-348.8C257.77,-340.08 223.11,-325.76 198,-302.25 177.6,-283.15 167.03,-252.38 161.77,-230.21"/>
<polygon fill="black" stroke="black" points="165.18,-229.44 159.65,-220.41 158.34,-230.92 165.18,-229.44"/>
<text text-anchor="middle" x="214.5" y="-290.05" font-family="Helvetica,sans-Serif" font-size="9.00">dialogo</text>
</g>
<!-- roteador&#45;&gt;executor -->
<g id="edge6" class="edge">
<title>roteador&#45;&gt;executor</title>
<path fill="none" stroke="black" d="M776.2,-363.25C803.2,-363.25 830.68,-363.25 855.62,-363.25"/>
<polygon fill="black" stroke="black" points="855.77,-366.75 865.77,-363.25 855.77,-359.75 855.77,-366.75"/>
<text text-anchor="middle" x="821" y="-379.05" font-family="Helvetica,sans-Serif" font-size="9.00">codigo extraido</text>
<text text-anchor="middle" x="821" y="-369.05" font-family="Helvetica,sans-Serif" font-size="9.00">(extrair_codigo)</text>
</g>
<!-- roteador&#45;&gt;anexa -->
<g id="edge7" class="edge">
<title>roteador&#45;&gt;anexa</title>
<path fill="none" stroke="black" stroke-dasharray="5,2" d="M643.91,-334.61C650.02,-324.48 656.9,-312.9 663,-302.25 677.02,-277.75 692.38,-249.45 703.12,-229.4"/>
<polygon fill="black" stroke="black" points="706.22,-231.01 707.85,-220.54 700.05,-227.71 706.22,-231.01"/>
<text text-anchor="middle" x="713" y="-295.05" font-family="Helvetica,sans-Serif" font-size="9.00">classe extraida</text>
<text text-anchor="middle" x="713" y="-285.05" font-family="Helvetica,sans-Serif" font-size="9.00">(extrair_resposta)</text>
</g>
<!-- forca -->
<g id="node9" class="node">
<title>forca</title>
<path fill="none" stroke="black" d="M628,-220.25C628,-220.25 488,-220.25 488,-220.25 482,-220.25 476,-214.25 476,-208.25 476,-208.25 476,-196.25 476,-196.25 476,-190.25 482,-184.25 488,-184.25 488,-184.25 628,-184.25 628,-184.25 634,-184.25 640,-190.25 640,-196.25 640,-196.25 640,-208.25 640,-208.25 640,-214.25 634,-220.25 628,-220.25"/>
<text text-anchor="middle" x="558" y="-205.45" font-family="Helvetica,sans-Serif" font-size="11.00">Forca a resposta</text>
<text text-anchor="middle" x="558" y="-193.45" font-family="Helvetica,sans-Serif" font-size="11.00">(limite de passos atingido)</text>
</g>
<!-- roteador&#45;&gt;forca -->
<g id="edge11" class="edge">
<title>roteador&#45;&gt;forca</title>
<path fill="none" stroke="black" d="M608.84,-334.86C602.68,-324.86 596.08,-313.29 591,-302.25 580.17,-278.7 571.14,-250.56 565.28,-230.3"/>
<polygon fill="black" stroke="black" points="568.59,-229.17 562.51,-220.5 561.86,-231.07 568.59,-229.17"/>
<text text-anchor="middle" x="627" y="-295.05" font-family="Helvetica,sans-Serif" font-size="9.00">passo == limite</text>
<text text-anchor="middle" x="627" y="-285.05" font-family="Helvetica,sans-Serif" font-size="9.00">sem resposta</text>
</g>
<!-- anexa&#45;&gt;llm_pensa -->
<g id="edge10" class="edge">
<title>anexa&#45;&gt;llm_pensa</title>
<path fill="none" stroke="black" d="M706.12,-220.38C694.47,-237.86 674.2,-263.23 649,-274.25 637.65,-279.22 381.13,-280.4 274,-277.25 251.3,-276.58 243.51,-284 223,-274.25 202.45,-264.48 185.32,-245.18 173.66,-229.02"/>
<polygon fill="black" stroke="black" points="176.31,-226.7 167.76,-220.44 170.54,-230.66 176.31,-226.7"/>
<text text-anchor="middle" x="321" y="-290.05" font-family="Helvetica,sans-Serif" font-size="9.00">dialogo + &#39;Result: ...&#39;</text>
</g>
<!-- forca&#45;&gt;llm_resposta -->
<g id="edge12" class="edge">
<title>forca&#45;&gt;llm_resposta</title>
<path fill="none" stroke="black" d="M520.66,-184.2C491.38,-171.44 449.31,-154.47 411,-144 362.42,-130.72 306.17,-121.77 263.54,-116.24"/>
<polygon fill="black" stroke="black" points="263.92,-112.76 253.56,-114.97 263.04,-119.7 263.92,-112.76"/>
<text text-anchor="middle" x="504.5" y="-146.8" font-family="Helvetica,sans-Serif" font-size="9.00">&#39;voce DEVE responder agora&#39;</text>
</g>
<!-- nota -->
<g id="node11" class="node">
<title>nota</title>
<polygon fill="#fff9c4" stroke="black" points="1251.5,-406.25 1074.5,-406.25 1074.5,-320.25 1257.5,-320.25 1257.5,-400.25 1251.5,-406.25"/>
<polyline fill="none" stroke="black" points="1251.5,-406.25 1251.5,-400.25 "/>
<polyline fill="none" stroke="black" points="1257.5,-400.25 1251.5,-400.25 "/>
<text text-anchor="middle" x="1166" y="-394.25" font-family="Helvetica,sans-Serif" font-size="10.00">O Python roda LOCAL, no mesmo</text>
<text text-anchor="middle" x="1166" y="-383.25" font-family="Helvetica,sans-Serif" font-size="10.00">processo que chama o LLM.</text>
<text text-anchor="middle" x="1166" y="-360.25" font-family="Helvetica,sans-Serif" font-size="10.00">O LLM NAO executa codigo: ele</text>
<text text-anchor="middle" x="1166" y="-349.25" font-family="Helvetica,sans-Serif" font-size="10.00">gera texto que se parece com</text>
<text text-anchor="middle" x="1166" y="-338.25" font-family="Helvetica,sans-Serif" font-size="10.00">codigo. Quem executa e o</text>
<text text-anchor="middle" x="1166" y="-327.25" font-family="Helvetica,sans-Serif" font-size="10.00">ExecutorSeguro, aqui na maquina.</text>
</g>
</g>
</svg>
